# xmcd
# 
# Track frame offsets:
#     150
#     15795
#     35107
#     53317
#     67057
#     82402
# 
# Disc length: 1387
# 
# Revision: 0
# Processed by: cddbd v1.5.2PL0 Copyright (c) Steve Scherf et al.
# Submitted via: fre:ac v1.0.17
# 
DISCID=46056906
DTITLE=幽閉カタルシス - 深海より愛を込めて
DYEAR=2014
DGENRE=Game
TTITLE0=深海より愛を込めて
TTITLE1=胸の痛みさえ
TTITLE2=Next Stage
TTITLE3=キミを乗せて
TTITLE4=生まれた意味、生きる理由
TTITLE5=沈黙のカナデ（Trance Remix)
EXTD=
EXTT0=
EXTT1=
EXTT2=
EXTT3=
EXTT4=
EXTT5=
PLAYORDER=
